<svg xmlns="http://www.w3.org/2000/svg" xml:space="preserve" style="fill-rule:evenodd;clip-rule:evenodd;stroke-linejoin:round;stroke-miterlimit:2" viewBox="0 0 244 60"><path d="M101.381 17.698h2.822q.115 0 .076-.114l-1.44-4.868q-.018-.076-.056-.068-.038.01-.057.068l-1.42 4.868q-.021.115.075.114m4.168 4.19-.492-1.688q-.038-.076-.095-.076h-4.32q-.056 0-.095.076l-.492 1.687q-.058.187-.266.187H96.89q-.113.001-.17-.065-.057-.067-.019-.199l4.055-12.808q.056-.19.245-.19h3.582q.189 0 .247.19l4.073 12.808a.2.2 0 0 1 .018.094q0 .171-.208.17h-2.898q-.21 0-.266-.187M118.381 17.698h2.822q.115 0 .076-.114l-1.44-4.868q-.018-.076-.056-.068-.038.01-.057.068l-1.42 4.868q-.021.115.075.114m4.168 4.19-.492-1.688q-.038-.076-.095-.076h-4.32q-.056 0-.095.076l-.492 1.687q-.058.187-.266.187h-2.899q-.113.001-.17-.065-.057-.067-.019-.199l4.055-12.808q.056-.19.245-.19h3.582q.189 0 .247.19l4.073 12.808a.2.2 0 0 1 .018.094q0 .171-.208.17h-2.898q-.21 0-.266-.187M130.342 22.01a.22.22 0 0 1-.067-.164V9.04q0-.095.067-.16a.22.22 0 0 1 .161-.068h2.69q.095 0 .161.068a.22.22 0 0 1 .067.16V19.29q0 .094.094.094h6.045q.094 0 .16.067a.22.22 0 0 1 .067.161v2.234a.22.22 0 0 1-.067.163.22.22 0 0 1-.16.066h-9.057a.22.22 0 0 1-.161-.066M150.985 19.015q.417-.35.417-1.013 0-.646-.408-.996-.407-.35-1.184-.35h-2.027q-.095 0-.096.095v2.52q0 .094.096.094h2.027q.757 0 1.175-.35m-3.298-7.418v2.388q0 .093.096.094h1.876q.776 0 1.193-.33.417-.333.418-.94 0-.624-.418-.966-.417-.34-1.193-.34h-1.876q-.095 0-.096.094m5.135 3.694q1.725.91 1.725 3.032 0 1.895-1.307 2.823-1.308.93-3.43.93h-5.04a.21.21 0 0 1-.16-.068.22.22 0 0 1-.067-.16V9.037q0-.093.067-.16a.22.22 0 0 1 .16-.067h4.889q2.31 0 3.495.873 1.184.872 1.185 2.823 0 1.858-1.517 2.671-.112.057 0 .113M166.057 19.005q.56-.587.56-1.572v-3.922q0-.965-.56-1.565-.558-.595-1.468-.596-.89.001-1.45.596-.558.6-.559 1.565v3.922q0 .986.559 1.572.56.587 1.45.587.91 0 1.468-.587m-4.168 2.662a4.43 4.43 0 0 1-1.81-1.733q-.644-1.117-.643-2.597V13.55q-.001-1.44.643-2.548a4.46 4.46 0 0 1 1.81-1.726q1.166-.615 2.7-.615t2.709.615 1.82 1.726q.643 1.109.643 2.548v3.788q0 1.48-.643 2.597a4.4 4.4 0 0 1-1.82 1.733q-1.175.616-2.709.616t-2.7-.616M177.964 11.597v2.69q0 .096.096.095h2.103q.7 0 1.137-.389.435-.388.435-1.03 0-.664-.435-1.063-.437-.399-1.137-.398h-2.103q-.097 0-.096.095m3.695 10.307-2.236-5.04q-.038-.075-.113-.075h-1.25q-.097 0-.096.095v4.963a.22.22 0 0 1-.066.162.22.22 0 0 1-.16.066h-2.691a.22.22 0 0 1-.162-.066.22.22 0 0 1-.065-.162V9.04q0-.095.065-.16a.22.22 0 0 1 .162-.068h5.626q1.252 0 2.199.512a3.6 3.6 0 0 1 1.468 1.45q.521.937.521 2.15 0 1.27-.624 2.2-.626.928-1.744 1.344-.094.037-.058.133l2.502 5.21q.038.077.038.113 0 .153-.208.152h-2.843a.27.27 0 0 1-.265-.17M192.071 21.62a4.37 4.37 0 0 1-1.781-1.704q-.634-1.1-.634-2.539v-3.885q0-1.44.634-2.53a4.4 4.4 0 0 1 1.781-1.695q1.146-.606 2.663-.607 1.496 0 2.652.578t1.791 1.582q.633 1.006.634 2.216v.095a.22.22 0 0 1-.066.161.21.21 0 0 1-.16.067h-2.691a.21.21 0 0 1-.162-.067.22.22 0 0 1-.066-.16q0-.74-.521-1.26-.521-.522-1.411-.522-.872 0-1.403.57-.531.567-.531 1.477v4.074q0 .91.589 1.478.584.569 1.478.567.833.001 1.344-.445.512-.445.513-1.24v-.53q-.001-.095-.095-.096h-1.895a.22.22 0 0 1-.162-.066.22.22 0 0 1-.066-.162v-2.083q0-.095.066-.16a.22.22 0 0 1 .162-.068h4.851q.093 0 .16.068a.22.22 0 0 1 .066.16v2.577q0 1.42-.634 2.501a4.3 4.3 0 0 1-1.781 1.667q-1.147.588-2.662.588-1.517 0-2.663-.607M99.495 45.332a4.26 4.26 0 0 1-1.781-1.639q-.633-1.059-.634-2.443v-8.527q0-.093.067-.16a.21.21 0 0 1 .16-.067h2.691q.094 0 .161.067a.22.22 0 0 1 .065.16v8.527q0 .89.523 1.43.52.54 1.392.541.853 0 1.373-.54.521-.541.521-1.43v-8.528q0-.093.067-.16a.22.22 0 0 1 .161-.067h2.69q.096 0 .161.067a.21.21 0 0 1 .067.16v8.527q0 1.383-.625 2.443a4.2 4.2 0 0 1-1.772 1.64q-1.146.579-2.643.578-1.498 0-2.644-.579M119.959 32.563a.22.22 0 0 1 .162-.068h2.689a.22.22 0 0 1 .162.068.22.22 0 0 1 .066.161v12.808a.22.22 0 0 1-.066.16.22.22 0 0 1-.162.068h-2.577q-.188 0-.264-.152l-4.358-7.237q-.04-.058-.076-.048-.038.01-.038.085l.018 7.124a.22.22 0 0 1-.066.16.21.21 0 0 1-.16.068h-2.691a.21.21 0 0 1-.161-.068.21.21 0 0 1-.066-.16V32.724q0-.095.066-.16a.22.22 0 0 1 .161-.069h2.595q.19 0 .266.153l4.339 7.22q.037.055.076.045.037-.008.037-.084l-.019-7.105q0-.095.067-.16M128.39 45.693a.22.22 0 0 1-.067-.162V32.724q0-.096.067-.16a.21.21 0 0 1 .161-.068h2.69q.095 0 .161.068a.22.22 0 0 1 .067.16v12.807a.22.22 0 0 1-.067.162.22.22 0 0 1-.161.067h-2.69a.22.22 0 0 1-.161-.067M140.128 45.57l-3.827-12.809-.02-.076q0-.19.209-.19h2.899q.208 0 .265.19l2.178 8.622q.02.056.058.056t.057-.056l2.14-8.622q.058-.19.267-.19h2.841q.113.001.171.077.057.075.019.19L143.5 45.57q-.057.19-.246.19h-2.879q-.191 0-.247-.19M161.471 35.12a.22.22 0 0 1-.161.067h-5.949q-.096 0-.095.095v2.33q0 .095.095.094h3.808q.095 0 .161.068a.21.21 0 0 1 .067.16v2.217a.22.22 0 0 1-.067.161.22.22 0 0 1-.161.065h-3.808q-.096.002-.095.096v2.5q0 .096.095.095h5.949q.096 0 .161.067a.22.22 0 0 1 .067.161v2.236a.22.22 0 0 1-.067.161.22.22 0 0 1-.161.067h-8.962a.21.21 0 0 1-.16-.067.21.21 0 0 1-.067-.16V32.723q-.001-.096.067-.16a.21.21 0 0 1 .16-.068h8.962q.096-.001.161.067a.22.22 0 0 1 .067.161v2.234a.22.22 0 0 1-.067.162M169.609 35.281v2.69q0 .097.096.096h2.103q.7 0 1.137-.389.435-.388.435-1.032 0-.663-.435-1.062-.437-.397-1.137-.397h-2.103q-.097 0-.096.094m3.695 10.307-2.236-5.039q-.038-.075-.113-.075h-1.25q-.097 0-.096.094v4.964a.22.22 0 0 1-.066.16.21.21 0 0 1-.16.068h-2.691a.22.22 0 0 1-.162-.068.22.22 0 0 1-.065-.16V32.724q0-.095.065-.16a.22.22 0 0 1 .162-.068h5.626q1.253 0 2.199.512a3.6 3.6 0 0 1 1.468 1.45q.522.936.521 2.15 0 1.27-.624 2.198-.626.93-1.744 1.345-.094.038-.058.133l2.502 5.21a.3.3 0 0 1 .038.114q0 .152-.208.152h-2.843a.27.27 0 0 1-.265-.172M183.584 45.408q-1.166-.5-1.8-1.439-.634-.938-.634-2.17v-.36q0-.095.065-.16a.22.22 0 0 1 .161-.067h2.635a.22.22 0 0 1 .16.066.22.22 0 0 1 .066.161v.228q0 .625.625 1.09.626.464 1.686.463.835 0 1.233-.36.397-.36.397-.833a.84.84 0 0 0-.236-.617 1.9 1.9 0 0 0-.635-.396 23 23 0 0 0-1.232-.446 1 1 0 0 0-.228-.086 2 2 0 0 1-.207-.066 14 14 0 0 1-2.142-.863 4.6 4.6 0 0 1-1.554-1.287q-.643-.824-.643-2.038 0-1.175.615-2.054.615-.883 1.715-1.356 1.099-.473 2.482-.474 1.458 0 2.624.532 1.166.529 1.828 1.496.665.965.665 2.217v.265a.22.22 0 0 1-.068.161.22.22 0 0 1-.16.067h-2.634a.22.22 0 0 1-.162-.067.22.22 0 0 1-.065-.16v-.133q0-.664-.588-1.175-.587-.513-1.572-.512-.74 0-1.157.303-.417.304-.417.852 0 .42.266.692.267.275.824.512.56.238 1.716.616 1.325.456 2.064.796.74.341 1.393 1.108.654.768.654 2.018 0 1.231-.626 2.122-.625.891-1.753 1.374-1.128.482-2.623.482-1.572.001-2.738-.502M196.336 45.693a.22.22 0 0 1-.067-.162V32.724q0-.096.067-.16a.21.21 0 0 1 .161-.068h2.69q.094 0 .161.068a.22.22 0 0 1 .067.16v12.807a.22.22 0 0 1-.067.162.22.22 0 0 1-.161.067h-2.69a.21.21 0 0 1-.161-.067M214.449 32.563a.22.22 0 0 1 .066.161v2.255a.22.22 0 0 1-.066.16.22.22 0 0 1-.162.066h-3.315q-.096 0-.095.095v10.232a.22.22 0 0 1-.066.16.21.21 0 0 1-.161.068h-2.691a.21.21 0 0 1-.16-.068.21.21 0 0 1-.067-.16V35.3q0-.095-.095-.095h-3.203a.22.22 0 0 1-.16-.066.22.22 0 0 1-.066-.16v-2.255a.22.22 0 0 1 .066-.16.22.22 0 0 1 .16-.069h9.853q.095 0 .162.068M228.64 35.12a.22.22 0 0 1-.161.067h-5.949q-.096 0-.095.095v2.33q0 .095.095.094h3.808q.095 0 .161.068a.21.21 0 0 1 .067.16v2.217a.22.22 0 0 1-.067.161.22.22 0 0 1-.161.065h-3.808q-.096.002-.095.096v2.5q0 .096.095.095h5.949q.095 0 .161.067a.22.22 0 0 1 .067.161v2.236a.22.22 0 0 1-.067.161.22.22 0 0 1-.161.067h-8.962a.21.21 0 0 1-.16-.067.21.21 0 0 1-.067-.16V32.723q-.001-.096.067-.16a.21.21 0 0 1 .16-.068h8.962q.095-.001.161.067a.22.22 0 0 1 .067.161v2.234a.22.22 0 0 1-.067.162M243.381 32.563a.22.22 0 0 1 .067.161v2.255a.22.22 0 0 1-.067.16.22.22 0 0 1-.162.067h-3.314q-.097 0-.096.094v10.232a.21.21 0 0 1-.066.16.21.21 0 0 1-.161.068h-2.691a.21.21 0 0 1-.16-.068.21.21 0 0 1-.066-.16V35.3q0-.094-.096-.094h-3.202a.22.22 0 0 1-.16-.067.21.21 0 0 1-.067-.16v-2.255q0-.095.067-.161a.21.21 0 0 1 .16-.067h9.852q.095 0 .162.067M56.913 45.79c-1.532-.698-3.072-.989-5.688-2.844-6.654-4.72-9.649-10.186-5.388-21.75 2.459-6.672 3.464-11.58 3.319-18.054-.082-.064-.406-.277-.483-.34-1.326 8.044-3.543 12.01-8.535 20.114-11.296 18.345-.675 29.574 4.344 33.626 4.646-2.232 9.509-6.103 12.431-10.752"></path><path d="M34.789 22.288C42.666 12.334 45.893 8.17 46.59 1.485c-.089-.049-.331-.177-.419-.226-2.133 8.075-6.548 11.606-19.729 20.723-13.703 9.48-13.218 23.758-9.483 34.178a30.8 30.8 0 0 0 14.119 3.41q1.627-.002 3.211-.168c-9.425-15.077-8.689-25.507.5-37.114"></path><path d="M29.421 14.73c8.937-4.424 12.9-8.843 14.652-14.545A8 8 0 0 0 43.654 0c-5.062 8.673-11.345 9.312-25.643 11.701C9.8 13.075 5.331 16.661.724 21.715.299 23.528-.003 26.428 0 28.356c.01 7.442 2.552 14.473 7.13 19.925.256-23.296 11.126-28.02 22.291-33.55"></path></svg>
